<svg width="80" height="80" viewBox="0 0 80 80" fill="none" xmlns="http://www.w3.org/2000/svg">
<rect width="80" height="80" rx="40" fill="#FEE2E2"/>
<path d="M31.25 56C30.2875 56 29.4638 55.6521 28.779 54.9564C28.0942 54.2607 27.7512 53.4234 27.75 52.4444V29.3333H26V25.7778H34.75V24H45.25V25.7778H54V29.3333H52.25V52.4444C52.25 53.4222 51.9076 54.2596 51.2228 54.9564C50.5379 55.6533 49.7137 56.0012 48.75 56H31.25ZM48.75 29.3333H31.25V52.4444H48.75V29.3333ZM34.75 48.8889H38.25V32.8889H34.75V48.8889ZM41.75 48.8889H45.25V32.8889H41.75V48.8889Z" fill="#C03232"/>
</svg>
