<svg width="40" height="40" viewBox="0 0 40 40" fill="none" xmlns="http://www.w3.org/2000/svg">
<rect width="40" height="40" rx="12" fill="#C2E7E0" fill-opacity="0.3"/>
<path d="M13.0007 27.8333C12.5423 27.8333 12.15 27.6701 11.8236 27.3438C11.4972 27.0174 11.334 26.625 11.334 26.1667V17C11.334 16.5417 11.4972 16.1493 11.8236 15.8229C12.15 15.4965 12.5423 15.3333 13.0007 15.3333H16.334V13.6667C16.334 13.2083 16.4972 12.816 16.8236 12.4896C17.15 12.1632 17.5423 12 18.0007 12H21.334C21.7923 12 22.1847 12.1632 22.5111 12.4896C22.8375 12.816 23.0007 13.2083 23.0007 13.6667V15.3333H26.334C26.7923 15.3333 27.1847 15.4965 27.5111 15.8229C27.8375 16.1493 28.0007 16.5417 28.0007 17V26.1667C28.0007 26.625 27.8375 27.0174 27.5111 27.3438C27.1847 27.6701 26.7923 27.8333 26.334 27.8333H13.0007ZM13.0007 26.1667H26.334V17H13.0007V26.1667ZM18.0007 15.3333H21.334V13.6667H18.0007V15.3333ZM13.0007 26.1667V17V26.1667Z" fill="#00897B"/>
</svg>
