<svg width="40" height="40" viewBox="0 0 40 40" fill="none" xmlns="http://www.w3.org/2000/svg">
<rect width="40" height="40" rx="12" fill="#C2E7E0" fill-opacity="0.3"/>
<path d="M17.9993 25.3333H24.666V23.6667H17.9993V25.3333ZM17.9993 22H24.666V20.3333H17.9993V22ZM16.3327 28.6667C15.8743 28.6667 15.482 28.5035 15.1556 28.1771C14.8292 27.8507 14.666 27.4583 14.666 27V13.6667C14.666 13.2083 14.8292 12.816 15.1556 12.4896C15.482 12.1632 15.8743 12 16.3327 12H22.9993L27.9993 17V27C27.9993 27.4583 27.8362 27.8507 27.5098 28.1771C27.1834 28.5035 26.791 28.6667 26.3327 28.6667H16.3327ZM22.166 17.8333V13.6667H16.3327V27H26.3327V17.8333H22.166ZM16.3327 13.6667V17.8333V13.6667V17.8333V27V13.6667Z" fill="#00897B"/>
</svg>
